<?xml version="1.0" encoding="UTF-8"?>
<svg id="Expanded" xmlns="http://www.w3.org/2000/svg" viewBox="0 0 64 64">
  <path d="M52.36,39.1l-4.03-14.1h.67c2.21,0,4-1.79,4-4s-1.79-4-4-4h-8c-2.21,0-4,1.79-4,4,0,1.81,1.21,3.32,2.87,3.82l-2.6,17.33c-.07.49-.49.85-.99.85h-2.58c-.49,0-.91-.35-.99-.84,0-.03-.01-.07-.02-.1l-1.44-5.3c-.22-.82-.65-1.56-1.24-2.17v-2.59c0-2.76-2.24-5-5-5h-15c-3.31,0-6,2.69-6,6,0,1.6.62,3.1,1.77,4.26.03.03.06.05.09.08-1.17,1.95-1.86,4.22-1.86,6.66v4c0,2.76,2.24,5,5,5h1.07c.49,3.94,3.86,7,7.93,7s7.44-3.06,7.93-7h17.14c.49,3.94,3.86,7,7.93,7s7.54-3.15,7.96-7.17c1.18-.4,2.04-1.51,2.04-2.83v-1c0-5.05-3.77-9.23-8.64-9.9ZM39,21c0-1.1.9-2,2-2h8c1.1,0,2,.9,2,2s-.9,2-2,2h-8c-1.1,0-2-.9-2-2ZM6,33c0-2.21,1.79-4,4-4h15c1.65,0,3,1.35,3,3v.59l-.12-.12c-.94-.94-2.2-1.46-3.54-1.46h-7.34c-4,0-7.58,1.82-9.97,4.67-.66-.74-1.03-1.68-1.03-2.67ZM6,48v-4c0-6.07,4.93-11,11-11h7.34c.8,0,1.56.31,2.12.88l1.83,1.83h0s.25.25.25.25c.37.37.64.83.77,1.33l1.43,5.26c.26,1.42,1.49,2.45,2.95,2.45h2.58c1.5,0,2.74-1.07,2.97-2.55l2.62-17.45h4.38l4.01,14.04c-5.17.38-9.26,4.7-9.26,9.96v2H9c-1.65,0-3-1.35-3-3ZM18,58c-2.97,0-5.43-2.17-5.91-5h11.82c-.48,2.83-2.94,5-5.91,5ZM51,58c-2.97,0-5.43-2.17-5.91-5h11.82c-.48,2.83-2.94,5-5.91,5ZM59,50c0,.55-.45,1-1,1h-15v-2c0-4.41,3.59-8,8-8s8,3.59,8,8v1ZM16,49h6c2.76,0,5-2.24,5-5s-2.24-5-5-5h-6c-2.76,0-5,2.24-5,5s2.24,5,5,5ZM16,41h6c1.65,0,3,1.35,3,3s-1.35,3-3,3h-6c-1.65,0-3-1.35-3-3s1.35-3,3-3ZM15.6,21.2l4.8,3.6c.18.13.39.2.6.2s.42-.07.6-.2l4.8-3.6c2.25-1.69,3.6-4.38,3.6-7.2v-6c0-.55-.45-1-1-1h-1.33c-1.5,0-3-.5-4.2-1.4l-1.87-1.4c-.36-.27-.84-.27-1.2,0l-1.87,1.4c-1.2.9-2.7,1.4-4.2,1.4h-1.33c-.55,0-1,.45-1,1v6c0,2.82,1.35,5.51,3.6,7.2ZM14,9h.33c1.93,0,3.85-.64,5.4-1.8l1.27-.95,1.27.95c1.55,1.16,3.47,1.8,5.4,1.8h.33v5c0,2.19-1.05,4.29-2.8,5.6l-4.2,3.15-4.2-3.15c-1.75-1.31-2.8-3.41-2.8-5.6v-5Z"/>
</svg>